<?xml version="1.0" encoding="UTF-8" standalone="no"?>
<!-- Created with Inkscape (http://www.inkscape.org/) -->

<svg
   width="508.64117"
   height="96.802803"
   viewBox="0 0 508.64118 96.802802"
   version="1.1"
   id="svg1"
   xml:space="preserve"
   inkscape:version="1.4.3 (0d15f75, 2025-12-25)"
   sodipodi:docname="logo blanco.svg"
   inkscape:export-filename="img\logo_color_lineal.svg"
   inkscape:export-xdpi="96"
   inkscape:export-ydpi="96"
   xmlns:inkscape="http://www.inkscape.org/namespaces/inkscape"
   xmlns:sodipodi="http://sodipodi.sourceforge.net/DTD/sodipodi-0.dtd"
   xmlns="http://www.w3.org/2000/svg"
   xmlns:svg="http://www.w3.org/2000/svg"><sodipodi:namedview
     id="namedview1"
     pagecolor="#ffffff"
     bordercolor="#000000"
     borderopacity="0.25"
     inkscape:showpageshadow="2"
     inkscape:pageopacity="0.0"
     inkscape:pagecheckerboard="0"
     inkscape:deskcolor="#d1d1d1"
     inkscape:document-units="px"
     inkscape:zoom="1.3883333"
     inkscape:cx="194.83794"
     inkscape:cy="133.61345"
     inkscape:window-width="1920"
     inkscape:window-height="1051"
     inkscape:window-x="-9"
     inkscape:window-y="-9"
     inkscape:window-maximized="1"
     inkscape:current-layer="layer1"><inkscape:page
       x="0"
       y="0"
       width="508.64117"
       height="96.802803"
       id="page2"
       margin="0"
       bleed="0" /></sodipodi:namedview><defs
     id="defs1" /><g
     inkscape:label="Capa 1"
     inkscape:groupmode="layer"
     id="layer1"
     transform="translate(-20.352023,-68.368958)"><path
       style="font-weight:900;font-size:96px;line-height:0.8;font-family:Utendo;-inkscape-font-specification:'Utendo Heavy';fill:#dd0000;fill-opacity:1;stroke-width:1.00157"
       d="m 22.944023,92.140235 q 0,-6.047999 2.496,-10.079999 2.496,-4.128 6.336,-6.624 3.936,-2.496 8.64,-3.552 4.704,-1.056 9.024,-1.056 8.448,0 14.688,3.168 6.24,3.168 10.176,8.064 l -11.904,12.287999 q -1.632,-2.208 -4.704,-3.744 -2.976,-1.632 -6.624,-1.632 -2.208,0 -4.128,0.864 -1.824,0.768 -1.824,2.688 0,2.208 2.592,3.552 2.688,1.248 6.72,2.688 3.168,1.152 6.72,2.688005 3.552,1.44 6.528,3.936 3.072,2.4 5.088,6.048 2.016,3.648 2.016,9.12 0,6.048 -2.496,10.17599 -2.496,4.03201 -6.432,6.528 -3.936,2.496 -8.736,3.552 -4.704,1.056 -9.216,1.056 -4.512,0 -8.448,-0.96 -3.936,-0.864 -7.392,-2.496 -3.36,-1.632 -6.336,-3.84 -2.88,-2.208 -5.376,-4.8 l 12.48,-13.248 q 2.4,2.88 6.144,5.088 3.744,2.112 8.064,2.112 2.208,0 3.84,-0.768 1.728,-0.768 1.728,-2.688 0,-1.248 -0.768,-2.112 -0.768,-0.96 -2.112,-1.728 -1.248,-0.768 -2.976,-1.44 -1.728,-0.768 -3.744,-1.44 -3.168,-1.152 -6.72,-2.592 -3.552,-1.44 -6.528,-3.84 -2.976,-2.4 -4.896,-5.952 -1.92,-3.647995 -1.92,-9.023995 z m 96.288087,23.999995 q 0,-2.112 -0.768,-3.936 -0.672,-1.92 -1.92,-3.36 -1.152,-1.44 -2.784,-2.208 -1.632,-0.864 -3.456,-0.864 -1.824,0 -3.456,0.864 -1.632,0.768 -2.88,2.208 -1.152,1.44 -1.92,3.36 -0.672,1.824 -0.672,3.936 0,2.112 0.672,4.03201 0.768,1.824 1.92,3.264 1.248,1.44 2.88,2.304 1.632,0.768 3.456,0.768 1.824,0 3.456,-0.768 1.632,-0.864 2.784,-2.304 1.248,-1.44 1.92,-3.264 0.768,-1.92 0.768,-4.03201 z m 20.736,0 q 0,5.376 -1.92,10.08001 -1.824,4.70399 -4.992,8.25599 -3.168,3.552 -7.488,5.56801 -4.224,2.01599 -9.024,2.01599 -4.32,0 -8.16,-1.728 -3.744,-1.632 -6.816,-4.704 v 23.712 H 81.024107 V 92.140235 h 20.544003 v 4.512 q 3.072,-3.072 6.816,-4.704 3.84,-1.728 8.16,-1.728 4.8,0 9.024,2.016 4.32,2.016 7.488,5.568 3.168,3.551995 4.992,8.255995 1.92,4.704 1.92,10.08 z m 3.07195,0 q 0,-5.952 2.208,-10.752 2.304,-4.8 6.144,-8.159995 3.84,-3.36 9.024,-5.184 5.28,-1.824 11.136,-1.824 5.952,0 11.136,1.824 5.184,1.824 9.024,5.184 3.84,3.359995 6.048,8.159995 2.304,4.8 2.304,10.752 0,5.952 -2.304,10.75201 -2.208,4.79999 -6.048,8.15999 -3.84,3.36 -9.024,5.184 -5.184,1.824 -11.136,1.824 -5.856,0 -11.136,-1.824 -5.184,-1.824 -9.024,-5.184 -3.84,-3.36 -6.144,-8.15999 -2.208,-4.80001 -2.208,-10.75201 z m 20.736,-0.096 q 0,4.896 2.208,7.68 2.304,2.784 5.568,2.784 3.264,0 5.472,-2.784 2.304,-2.78399 2.304,-7.68 0,-4.704 -2.304,-7.488 -2.208,-2.784 -5.472,-2.784 -3.264,0 -5.568,2.784 -2.208,2.784 -2.208,7.488 z m 74.784,-8.832 q -7.2,-0.384 -10.272,2.78401 -2.976,3.168 -2.976,8.64 v 21.31199 h -20.544 V 91.948235 h 20.544 v 5.472 q 2.784,-4.128 6.144,-5.568 3.456,-1.44 7.104,-1.152 z m 11.32792,-0.672 h -9.216 V 91.948235 h 9.216 V 78.700236 h 20.544 v 13.247999 h 9.216 v 14.592005 h -9.216 v 33.40799 h -20.544 z"
       id="text1"
       aria-label="Sport" /><text
       xml:space="preserve"
       style="font-style:normal;font-variant:normal;font-weight:900;font-stretch:normal;font-size:96px;line-height:0.8;font-family:Utendo;-inkscape-font-specification:'Utendo Heavy';writing-mode:lr-tb;direction:ltr;fill:#ffbb00;fill-opacity:1;stroke-width:1.00157"
       x="279.77695"
       y="139.98499"
       id="text2"><tspan
         sodipodi:role="line"
         id="tspan2"
         x="279.77695"
         y="139.98499">P   int</tspan></text><path
       fill="#231f20"
       d="m 372.88576,85.17176 c -16.5675,0 -30,13.4325 -30,30 0,6.52375 2.13875,12.51 5.69375,17.4125 0.0637,0.1175 0.0738,0.24875 0.14625,0.36125 l 20,30 c 0.9275,1.39125 2.49,2.22625 4.16,2.22625 1.67,0 3.2325,-0.835 4.16,-2.22625 l 20,-30 c 0.0737,-0.1125 0.0825,-0.24375 0.14625,-0.36125 3.555,-4.9025 5.69375,-10.88875 5.69375,-17.4125 0,-16.5675 -13.4325,-30 -30,-30 z"
       id="path1"
       style="fill:#008f4c;fill-opacity:1;stroke-width:1.25"
       sodipodi:nodetypes="ssccsssccss" /><path
       sodipodi:type="star"
       style="fill:#ffffff;fill-opacity:1;stroke-width:1.00157"
       id="path2"
       inkscape:flatsided="false"
       sodipodi:sides="8"
       sodipodi:cx="54.497307"
       sodipodi:cy="249.56709"
       sodipodi:r1="36.603821"
       sodipodi:r2="18.30191"
       sodipodi:arg1="1.2006255"
       sodipodi:arg2="1.5933246"
       inkscape:rounded="0"
       inkscape:randomized="0"
       d="M 67.739643,283.69157 54.085031,267.86436 39.7314,283.06049 l 1.536263,-20.8468 -20.894838,0.59574 15.827216,-13.65461 -15.196132,-14.35363 20.8468,1.53626 -0.595738,-20.89484 13.654611,15.82722 14.353631,-15.19613 -1.536262,20.84679 20.894837,-0.59573 -15.827215,13.65461 15.196132,14.35363 -20.8468,-1.53626 z"
       transform="matrix(0.22503418,0.49792399,-0.49792399,0.22503418,484.88744,33.81864)" /></g></svg>
