<?xml version="1.0" encoding="UTF-8" standalone="no"?>
<!-- Created with Inkscape (http://www.inkscape.org/) -->

<svg
   width="259.29596"
   height="178.34364"
   viewBox="0 0 259.29596 178.34364"
   version="1.1"
   id="svg1"
   xml:space="preserve"
   xmlns="http://www.w3.org/2000/svg"
   xmlns:svg="http://www.w3.org/2000/svg"><defs
     id="defs1" /><g
     id="layer1"
     transform="translate(300.96857,-223.42684)"><g
       id="layer1-8"
       transform="translate(-321.32059,155.05788)"
       style="fill:#ffffff"><path
         style="font-weight:900;font-size:96px;line-height:0.8;font-family:Utendo;-inkscape-font-specification:'Utendo Heavy';fill:#ffffff;fill-opacity:1;stroke-width:1.00157"
         d="m 22.944023,92.140235 q 0,-6.047999 2.496,-10.079999 2.496,-4.128 6.336,-6.624 3.936,-2.496 8.64,-3.552 4.704,-1.056 9.024,-1.056 8.448,0 14.688,3.168 6.24,3.168 10.176,8.064 l -11.904,12.287999 q -1.632,-2.208 -4.704,-3.744 -2.976,-1.632 -6.624,-1.632 -2.208,0 -4.128,0.864 -1.824,0.768 -1.824,2.688 0,2.208 2.592,3.552 2.688,1.248 6.72,2.688 3.168,1.152 6.72,2.688005 3.552,1.44 6.528,3.936 3.072,2.4 5.088,6.048 2.016,3.648 2.016,9.12 0,6.048 -2.496,10.17599 -2.496,4.03201 -6.432,6.528 -3.936,2.496 -8.736,3.552 -4.704,1.056 -9.216,1.056 -4.512,0 -8.448,-0.96 -3.936,-0.864 -7.392,-2.496 -3.36,-1.632 -6.336,-3.84 -2.88,-2.208 -5.376,-4.8 l 12.48,-13.248 q 2.4,2.88 6.144,5.088 3.744,2.112 8.064,2.112 2.208,0 3.84,-0.768 1.728,-0.768 1.728,-2.688 0,-1.248 -0.768,-2.112 -0.768,-0.96 -2.112,-1.728 -1.248,-0.768 -2.976,-1.44 -1.728,-0.768 -3.744,-1.44 -3.168,-1.152 -6.72,-2.592 -3.552,-1.44 -6.528,-3.84 -2.976,-2.4 -4.896,-5.952 -1.92,-3.647995 -1.92,-9.023995 z m 96.288087,23.999995 q 0,-2.112 -0.768,-3.936 -0.672,-1.92 -1.92,-3.36 -1.152,-1.44 -2.784,-2.208 -1.632,-0.864 -3.456,-0.864 -1.824,0 -3.456,0.864 -1.632,0.768 -2.88,2.208 -1.152,1.44 -1.92,3.36 -0.672,1.824 -0.672,3.936 0,2.112 0.672,4.03201 0.768,1.824 1.92,3.264 1.248,1.44 2.88,2.304 1.632,0.768 3.456,0.768 1.824,0 3.456,-0.768 1.632,-0.864 2.784,-2.304 1.248,-1.44 1.92,-3.264 0.768,-1.92 0.768,-4.03201 z m 20.736,0 q 0,5.376 -1.92,10.08001 -1.824,4.70399 -4.992,8.25599 -3.168,3.552 -7.488,5.56801 -4.224,2.01599 -9.024,2.01599 -4.32,0 -8.16,-1.728 -3.744,-1.632 -6.816,-4.704 v 23.712 H 81.024107 V 92.140235 h 20.544003 v 4.512 q 3.072,-3.072 6.816,-4.704 3.84,-1.728 8.16,-1.728 4.8,0 9.024,2.016 4.32,2.016 7.488,5.568 3.168,3.551995 4.992,8.255995 1.92,4.704 1.92,10.08 z m 3.07195,0 q 0,-5.952 2.208,-10.752 2.304,-4.8 6.144,-8.159995 3.84,-3.36 9.024,-5.184 5.28,-1.824 11.136,-1.824 5.952,0 11.136,1.824 5.184,1.824 9.024,5.184 3.84,3.359995 6.048,8.159995 2.304,4.8 2.304,10.752 0,5.952 -2.304,10.75201 -2.208,4.79999 -6.048,8.15999 -3.84,3.36 -9.024,5.184 -5.184,1.824 -11.136,1.824 -5.856,0 -11.136,-1.824 -5.184,-1.824 -9.024,-5.184 -3.84,-3.36 -6.144,-8.15999 -2.208,-4.80001 -2.208,-10.75201 z m 20.736,-0.096 q 0,4.896 2.208,7.68 2.304,2.784 5.568,2.784 3.264,0 5.472,-2.784 2.304,-2.78399 2.304,-7.68 0,-4.704 -2.304,-7.488 -2.208,-2.784 -5.472,-2.784 -3.264,0 -5.568,2.784 -2.208,2.784 -2.208,7.488 z m 74.784,-8.832 q -7.2,-0.384 -10.272,2.78401 -2.976,3.168 -2.976,8.64 v 21.31199 h -20.544 V 91.948235 h 20.544 v 5.472 q 2.784,-4.128 6.144,-5.568 3.456,-1.44 7.104,-1.152 z m 11.32792,-0.672 h -9.216 V 91.948235 h 9.216 V 78.700236 h 20.544 v 13.247999 h 9.216 v 14.592005 h -9.216 v 33.40799 h -20.544 z"
         id="text1"
         aria-label="Sport" /><text
         xml:space="preserve"
         style="font-style:normal;font-variant:normal;font-weight:900;font-stretch:normal;font-size:96px;line-height:0.8;font-family:Utendo;-inkscape-font-specification:'Utendo Heavy';writing-mode:lr-tb;direction:ltr;fill:#ffffff;fill-opacity:1;stroke-width:1.00157"
         x="279.77695"
         y="139.98499"
         id="text2"><tspan
           id="tspan2"
           x="279.77695"
           y="139.98499">P   int</tspan></text><path
         id="path1"
         style="fill:#ffffff;fill-opacity:1;stroke-width:1.25"
         d="m 372.8855,85.1727 c -16.5675,0 -30,13.4325 -30,30 0,6.52375 2.13836,12.50961 5.69336,17.41211 0.0637,0.1175 0.074,0.24883 0.14649,0.36133 l 20,30 c 0.9275,1.39125 2.49015,2.22656 4.16015,2.22656 1.67,0 3.23266,-0.83531 4.16016,-2.22656 l 20,-30 c 0.0737,-0.1125 0.0827,-0.24383 0.14648,-0.36133 3.555,-4.9025 5.69336,-10.88836 5.69336,-17.41211 0,-16.5675 -13.4325,-30 -30,-30 z m -0.18554,11.943359 3.92773,10.724611 10.26953,-4.99805 -4.80859,10.36133 10.79687,3.72656 -10.72461,3.92578 4.99805,10.26953 -10.36133,-4.80664 -3.72656,10.79688 -3.92578,-10.72656 -10.27149,4.99804 4.8086,-10.35937 -10.79688,-3.72852 10.72657,-3.92578 -5,-10.26953 10.36132,4.80664 z" /></g></g></svg>
